<svg width="12" height="12" viewBox="0 0 12 12" fill="none" xmlns="http://www.w3.org/2000/svg">
    <path d="M0.355767 5.1533L3.82637 1.6767L4.84113 2.69746C4.69702 3.20784 4.9312 3.76626 5.39955 4.03647V7.36296C5.03928 7.56711 4.7991 7.95741 4.7991 8.40174C4.7991 8.72024 4.92562 9.02569 5.15084 9.25091C5.37605 9.47612 5.6815 9.60264 6 9.60264C6.3185 9.60264 6.62395 9.47612 6.84916 9.25091C7.07438 9.02569 7.2009 8.72024 7.2009 8.40174C7.2009 7.95741 6.96072 7.56711 6.60045 7.36296V4.44477L7.84338 5.69971C7.80135 5.78978 7.80135 5.89186 7.80135 5.99994C7.80135 6.31844 7.92787 6.62389 8.15309 6.8491C8.3783 7.07432 8.68375 7.20084 9.00225 7.20084C9.32075 7.20084 9.6262 7.07432 9.85142 6.8491C10.0766 6.62389 10.2032 6.31844 10.2032 5.99994C10.2032 5.68144 10.0766 5.37599 9.85142 5.15077C9.6262 4.92556 9.32075 4.79904 9.00225 4.79904C8.89417 4.79904 8.79209 4.79904 8.70203 4.84107L7.15887 3.29791C7.23342 3.01981 7.20452 2.72409 7.07753 2.46568C6.95053 2.20728 6.73407 2.00374 6.46835 1.89286C6.21016 1.79679 5.93996 1.77277 5.69978 1.83882L4.67901 0.824057L5.15337 0.355706C5.62172 -0.11865 6.37828 -0.11865 6.84663 0.355706L11.6442 5.1533C12.1186 5.62166 12.1186 6.37822 11.6442 6.84657L6.84663 11.6442C6.37828 12.1185 5.62172 12.1185 5.15337 11.6442L0.355767 6.84657C-0.118589 6.37822 -0.118589 5.62166 0.355767 5.1533Z"
          fill="#2F495E"/>
</svg>
