<svg width="12" height="12" viewBox="0 0 12 12" fill="none" xmlns="http://www.w3.org/2000/svg">
    <path fill-rule="evenodd" clip-rule="evenodd"
          d="M2.51645 11.942V4.04429H0.0754602V11.942H2.51645ZM2.51645 1.24489C2.50191 0.538122 2.03088 0 1.26567 0C0.500265 0 0.000152588 0.538122 0.000152588 1.24489C0.000152588 1.9363 0.485726 2.48999 1.23639 2.48999H1.25093C2.03088 2.48999 2.51645 1.9363 2.51645 1.24489ZM6.49879 11.942V7.44227C6.49879 7.20145 6.5162 6.96063 6.58701 6.78896C6.78062 6.30756 7.22125 5.80923 7.96111 5.80923C8.93035 5.80923 9.53821 6.3593 9.53821 7.44227V11.942H11.9957V7.32186C11.9957 4.84691 10.6745 3.69527 8.91223 3.69527C7.46732 3.69527 6.83308 4.50308 6.48091 5.05291L6.49855 3.99663H4.04534C4.08063 4.7527 4.04534 11.942 4.04534 11.942H6.49879Z"
          fill="#2F495E"/>
</svg>
