<svg width="80" height="80" viewBox="0 0 80 80" fill="none" xmlns="http://www.w3.org/2000/svg">
<path fill-rule="evenodd" clip-rule="evenodd" d="M61.8157 63.5597L66.5352 10.6933L66.5969 9.99988H65.9016H14.0985H13.4031L13.4649 10.6933L18.1793 63.5683L18.2186 64.0093L18.6433 64.1269L39.7989 69.9999H40.1383L61.3516 64.1183L61.7762 64.0007L61.8157 63.5597Z" fill="#1572B6"/>
<path fill-rule="evenodd" clip-rule="evenodd" d="M62.4973 13.7498H40V66.1467L58.2719 61.0807L62.4973 13.7498Z" fill="#35A8DB"/>
<path fill-rule="evenodd" clip-rule="evenodd" d="M39.975 27.8264L24.1073 34.4349L24.6337 40.9776L39.975 34.4182L56.2942 27.4411L56.9707 20.748L39.975 27.8264Z" fill="#E9E9E8"/>
<path fill-rule="evenodd" clip-rule="evenodd" d="M39.9751 20.7484H40.0927H40.2267H40.3602H40.4942H40.6282H40.7622H40.8962H41.0302H41.1642H41.2981H41.4321H41.5661H41.7001H41.8341H41.9681H42.102H42.2356H42.3696H42.5036H42.6376H42.7716H42.9056H43.0395H43.1735H43.3075H43.4415H43.5755H43.7091H43.8431H43.977H44.111H44.245H44.379H44.513H44.647H44.781H44.9149H45.0489H45.1829H45.3169H45.4509H45.5849H45.7185H45.8524H45.9864H46.1204H46.2544H46.3884H46.5224H46.6563H46.7903H46.9243H47.0583H47.1923H47.3263H47.4599H47.5938H47.7278H47.8618H47.9958H48.1298H48.2638H48.3977H48.5317H48.6657H48.7997H48.9337H49.0673H49.2013H49.3352H49.4692H49.6032H49.7372H49.8712H50.0052H50.1392H50.2731H50.4071H50.5411H50.6751H50.8091H50.9427H51.0767H51.2106H51.3446H51.4786H51.6126H51.7466H51.8806H52.0145H52.1485H52.2825H52.4165H52.5501H52.6841H52.8181H52.952H53.086H53.22H53.354H53.488H53.622H53.756H53.8899H54.0239H54.1579H54.2919H54.4255H54.5595H54.6935H54.8274H54.9614H55.0954H55.2294H55.3634H55.4974H55.6313H55.7653H55.8993H56.0333H56.1673H56.3009H56.4349H56.5688H56.7028H56.8368H56.9708L56.8368 22.0732L56.7028 23.3978L56.5688 24.7225L56.4349 26.0476L56.3009 27.3722L56.2942 27.4411H56.1673H56.0333H55.8993H55.7653H55.6313H55.4974H55.3634H55.2294H55.0954H54.9614H54.8274H54.6935H54.5595H54.4255H54.2919H54.1579H54.0239H53.8899H53.756H53.622H53.488H53.354H53.22H53.086H52.952H52.8181H52.6841H52.5501H52.4165H52.2825H52.1485H52.0145H51.8806H51.7466H51.6126H51.4786H51.3446H51.2106H51.0767H50.9427H50.8091H50.6751H50.5411H50.4071H50.2731H50.1392H50.0052H49.8712H49.7372H49.6032H49.4692H49.3352H49.2013H49.0673H48.9337H48.7997H48.6657H48.5317H48.3977H48.2638H48.1298H47.9958H47.8618H47.7278H47.5938H47.4599H47.3263H47.1923H47.0583H46.9243H46.7903H46.6563H46.5224H46.3884H46.2544H46.1204H45.9864H45.8524H45.7185H45.5849H45.4509H45.3169H45.1829H45.0489H44.9149H44.781H44.647H44.513H44.379H44.245H44.111H43.977H43.8431H43.7091H43.5755H43.4415H43.3075H43.1735H43.0395H42.9056H42.7716H42.6376H42.5036H42.3696H42.2356H42.102H41.9681H41.8341H41.7001H41.5661H41.4321H41.2981H41.1642H41.0302H40.9001H40.8962H40.7622H40.6282H40.4942H40.3602H40.2267H40.0927H39.9946H39.9751H39.9587H39.8247H39.6907H39.5567H39.4227H39.2888H39.1548H39.0209H38.887H38.753H38.6191H38.4851H38.3511H38.2172H38.0833H37.9493H37.8153H37.6814H37.5474H37.4135H37.2795H37.1456H37.0116H36.8776H36.7437H36.6097H36.4758H36.3418H36.2079H36.0739H35.94H35.806H35.672H35.5381H35.4042H35.2702H35.1363H35.0023H34.8683H34.7344H34.6004H34.4665H34.3326H34.1986H34.0646H33.9306H33.7967H33.6627H33.5288H33.3949H33.2609H33.127H32.993H32.859H32.7251H32.5911H32.4572H32.3232H32.1893H32.0553H31.9213H31.7874H31.6534H31.5195H31.3855H31.2516H31.1176H30.9836H30.8497H30.7158H30.5818H30.4478H30.3139H30.1799H30.046H29.912H29.7781H29.6441H29.5102H29.3762H29.2422H29.1083H28.9743H28.8404H28.7064H28.5725H28.4385H28.3046H28.1706H28.0367H27.9027H27.7688H27.6348H27.5008H27.3669H27.2329H27.099H26.965H26.8311H26.6971H26.5631H26.4292H26.2952H26.1613H26.0274H25.8934H25.7594H25.6255H25.4915H25.3576H25.2236H25.0897H24.9557H24.8218H24.6878H24.5538H24.4199H24.2859H24.152H24.018H23.8841H23.7501H23.6161H23.5056L23.4822 27.2518L23.3483 26.1677L23.2143 25.084L23.0803 23.9998L22.9464 22.916L22.8125 21.8322L22.6785 20.7484H22.8125H22.9464H23.0803H23.2143H23.3483H23.4822H23.6161H23.7501H23.8841H24.018H24.152H24.2859H24.4199H24.5538H24.6878H24.8218H24.9557H25.0897H25.2236H25.3576H25.4915H25.6255H25.7594H25.8934H26.0274H26.1613H26.2952H26.4292H26.5631H26.6971H26.8311H26.965H27.099H27.2329H27.3669H27.5008H27.6348H27.7688H27.9027H28.0367H28.1706H28.3046H28.4385H28.5725H28.7064H28.8404H28.9743H29.1083H29.2422H29.3762H29.5102H29.6441H29.7781H29.912H30.046H30.1799H30.3139H30.4478H30.5818H30.7158H30.8497H30.9836H31.1176H31.2516H31.3855H31.5195H31.6534H31.7874H31.9213H32.0553H32.1893H32.3232H32.4572H32.5911H32.7251H32.859H32.993H33.127H33.2609H33.3949H33.5288H33.6627H33.7967H33.9306H34.0646H34.1986H34.3326H34.4665H34.6004H34.7344H34.8683H35.0023H35.1363H35.2702H35.4042H35.5381H35.672H35.806H35.94H36.0739H36.2079H36.3418H36.4758H36.6097H36.7437H36.8776H37.0116H37.1456H37.2795H37.4135H37.5474H37.6814H37.8153H37.9493H38.0833H38.2172H38.3511H38.4851H38.6191H38.753H38.887H39.0209H39.1548H39.2888H39.4227H39.5567H39.6907H39.8247H39.9587H39.9751Z" fill="#E9E9E8"/>
<path fill-rule="evenodd" clip-rule="evenodd" d="M24.1319 34.4358H55.7177L55.1423 41.053L24.6582 40.9776L24.1319 34.4358Z" fill="#E9E9E8"/>
<path fill-rule="evenodd" clip-rule="evenodd" d="M25.1189 44.6635L32.0283 44.6663L32.4791 50.0768L39.9751 51.9358L47.6708 49.776L48.1915 40.928L55.1626 40.8186L53.9126 55.1905L40.0001 59.2518L25.9875 55.1155L25.1189 44.6635Z" fill="#E9E9E8"/>
<path fill-rule="evenodd" clip-rule="evenodd" d="M40 34.4074L56.2941 27.4411L56.9707 20.748L40 27.8159V34.4074Z" fill="#FFFFFE"/>
<path fill-rule="evenodd" clip-rule="evenodd" d="M40 20.7484H40.0926H40.2266H40.3602H40.4941H40.6281H40.7621H40.8961H41.0301H41.1641H41.298H41.432H41.566H41.7H41.834H41.968H42.102H42.2355H42.3695H42.5035H42.6375H42.7715H42.9055H43.0395H43.1734H43.3074H43.4414H43.5754H43.709H43.843H43.977H44.1109H44.2449H44.3789H44.5129H44.6469H44.7809H44.9148H45.0488H45.1828H45.3168H45.4508H45.5848H45.7184H45.8523H45.9863H46.1203H46.2543H46.3883H46.5223H46.6563H46.7902H46.9242H47.0582H47.1922H47.3262H47.4598H47.5938H47.7277H47.8617H47.9957H48.1297H48.2637H48.3977H48.5316H48.6656H48.7996H48.9336H49.0672H49.2012H49.3352H49.4691H49.6031H49.7371H49.8711H50.0051H50.1391H50.273H50.407H50.541H50.675H50.809H50.9426H51.0766H51.2105H51.3445H51.4785H51.6125H51.7465H51.8805H52.0145H52.1484H52.2824H52.4164H52.55H52.684H52.818H52.952H53.0859H53.2199H53.3539H53.4879H53.6219H53.7559H53.8898H54.0238H54.1578H54.2918H54.4254H54.5594H54.6934H54.8273H54.9613H55.0953H55.2293H55.3633H55.4973H55.6312H55.7652H55.8992H56.0332H56.1672H56.3008H56.4348H56.5688H56.7027H56.8367H56.9707L56.8367 22.0732L56.7027 23.3978L56.5688 24.7225L56.4348 26.0476L56.3008 27.3722L56.2941 27.4411H56.1672H56.0332H55.8992H55.7652H55.6312H55.4973H55.3633H55.2293H55.0953H54.9613H54.8273H54.6934H54.5594H54.4254H54.2918H54.1578H54.0238H53.8898H53.7559H53.6219H53.4879H53.3539H53.2199H53.0859H52.952H52.818H52.684H52.55H52.4164H52.2824H52.1484H52.0145H51.8805H51.7465H51.6125H51.4785H51.3445H51.2105H51.0766H50.9426H50.809H50.675H50.541H50.407H50.273H50.1391H50.0051H49.8711H49.7371H49.6031H49.4691H49.3352H49.2012H49.0672H48.9336H48.7996H48.6656H48.5316H48.3977H48.2637H48.1297H47.9957H47.8617H47.7277H47.5938H47.4598H47.3262H47.1922H47.0582H46.9242H46.7902H46.6563H46.5223H46.3883H46.2543H46.1203H45.9863H45.8523H45.7184H45.5848H45.4508H45.3168H45.1828H45.0488H44.9148H44.7809H44.6469H44.5129H44.3789H44.2449H44.1109H43.977H43.843H43.709H43.5754H43.4414H43.3074H43.1734H43.0395H42.9055H42.7715H42.6375H42.5035H42.3695H42.2355H42.102H41.968H41.834H41.7H41.566H41.432H41.298H41.1641H41.0301H40.9H40.8961H40.7621H40.6281H40.4941H40.3602H40.2266H40.0926H40V20.7484Z" fill="#FFFFFE"/>
<path fill-rule="evenodd" clip-rule="evenodd" d="M40 34.4358H55.7176L55.1422 41.053L40 41.0155V34.4358Z" fill="#FFFFFE"/>
<path fill-rule="evenodd" clip-rule="evenodd" d="M40 51.9288L47.6707 49.776L48.1914 40.928L55.1625 40.8186L53.9125 55.1905L40 59.2518V59.2514V51.9288Z" fill="#FFFFFE"/>
</svg>
